<svg width="92" height="48" viewBox="0 0 92 48" fill="none" xmlns="http://www.w3.org/2000/svg">
<g style="mix-blend-mode:soft-light">
<path d="M47.6563 46.3061C24.1863 45.8246 5.18284 44.3234 5.21096 42.9531C5.23907 41.5829 24.2881 40.8624 47.7581 41.3439C71.2282 41.8255 90.2316 43.3266 90.2035 44.6969C90.1754 46.0672 71.1264 46.7876 47.6563 46.3061Z" fill="#2D2D2D"/>
</g>
<path d="M36.3865 9.92223L38.1619 9.58887L39.3998 16.1819L37.6245 16.5152L36.3865 9.92223Z" stroke="#263238" stroke-width="3" stroke-miterlimit="10"/>
<path d="M41.3177 28.4337C41.3662 28.4237 41.551 28.3902 41.5995 28.3803C41.9165 28.321 42.2193 28.5201 42.2808 28.8372C42.3401 29.1541 42.1301 29.4502 41.8131 29.5095C41.7647 29.5195 41.5798 29.5529 41.5314 29.5629C41.2144 29.6222 40.9115 29.423 40.85 29.106C40.7908 28.789 41.0008 28.4929 41.3177 28.4337Z" fill="#263238"/>
<path opacity="0.1" d="M40.8459 29.0932C40.9052 29.4101 41.2101 29.6203 41.5293 29.5589C41.8485 29.4974 42.0564 29.1947 41.995 28.8755C41.9336 28.5563 41.6309 28.3484 41.3117 28.4098C40.9947 28.4691 40.7845 28.774 40.8459 29.0932Z" fill="white"/>
<path d="M39.7659 28.7227C39.8144 28.7127 39.9993 28.6793 40.0477 28.6693C40.3647 28.61 40.6676 28.8092 40.729 29.1262C40.7905 29.4432 40.5783 29.7393 40.2613 29.7985C40.2129 29.8085 40.028 29.842 39.9796 29.852C39.6626 29.9112 39.3597 29.7121 39.2983 29.3951C39.239 29.0781 39.449 28.782 39.7659 28.7227Z" fill="#263238"/>
<path opacity="0.2" d="M39.2964 29.3822C39.3556 29.6992 39.6605 29.9094 39.9797 29.8479C40.2967 29.7887 40.5068 29.4838 40.4454 29.1646C40.384 28.8454 40.0813 28.6375 39.7621 28.6989C39.4451 28.7582 39.2349 29.063 39.2964 29.3822Z" fill="white"/>
<path d="M32.3677 17.8259L34.2416 27.8038C34.4274 28.7965 35.401 29.5423 36.3937 29.3566L41.3662 28.4236L38.7985 14.7433L33.8261 15.6763C33.1371 15.8047 32.6114 16.3157 32.4165 16.941C32.3319 17.2178 32.3103 17.5221 32.3677 17.8259Z" fill="#834A22"/>
<path d="M37.1123 14.8015L38.9136 14.4633C39.2337 14.4032 39.5419 14.614 39.602 14.9341L42.0367 27.9003C42.0968 28.2204 41.886 28.5286 41.5659 28.5887L39.7647 28.927C39.4446 28.9871 39.1364 28.7763 39.0763 28.4562L36.6416 15.49C36.5815 15.1699 36.7923 14.8616 37.1123 14.8015Z" fill="#263238"/>
<path opacity="0.2" d="M38.2078 14.5956L38.9124 14.4633C39.2325 14.4032 39.5407 14.614 39.6008 14.9341L42.0355 27.9003C42.0956 28.2204 41.8848 28.5286 41.5647 28.5887L40.8602 28.721C40.5401 28.7811 40.2319 28.5704 40.1717 28.2503L37.7371 15.284C37.677 14.9639 37.8877 14.6557 38.2078 14.5956Z" fill="white"/>
<path opacity="0.2" d="M32.3676 17.8275L34.2416 27.8054C34.4273 28.7981 35.4009 29.5439 36.3936 29.3581L38.3901 28.9825C38.4393 28.8278 38.469 28.5587 38.4374 28.3892L36.346 17.2491C36.2434 16.6966 35.6759 16.3517 35.1234 16.4566L32.4182 16.9646C32.3395 17.2721 32.308 17.5258 32.3654 17.8296L32.3676 17.8275Z" fill="black"/>
<path opacity="0.2" d="M38.4731 14.9256L38.9385 14.8383C39.161 14.7965 39.3753 14.9431 39.417 15.1656L41.7783 27.7531C41.82 27.9756 41.6735 28.1898 41.451 28.2316L40.9856 28.3189C40.763 28.3606 40.5488 28.2141 40.5071 27.9916L38.1458 15.4041C38.104 15.1816 38.2506 14.9673 38.4731 14.9256Z" fill="black"/>
<path d="M36.4979 10.1705L38.173 9.85625C38.3777 9.81879 38.5111 9.62199 38.4736 9.41731C38.4362 9.21262 38.2394 9.07921 38.0347 9.11667L36.3596 9.43094C36.1549 9.46841 36.0215 9.6652 36.0589 9.86989C36.0964 10.0746 36.2932 10.208 36.4979 10.1705Z" fill="#263238"/>
<path opacity="0.2" d="M36.4979 10.1705L38.173 9.85625C38.3777 9.81879 38.5111 9.62199 38.4736 9.41731C38.4362 9.21262 38.2394 9.07921 38.0347 9.11667L36.3596 9.43094C36.1549 9.46841 36.0215 9.6652 36.0589 9.86989C36.0964 10.0746 36.2932 10.208 36.4979 10.1705Z" fill="white"/>
<path opacity="0.2" d="M36.4891 10.1731C36.6894 10.1356 36.8205 9.94312 36.7829 9.74501L36.779 9.72519C36.7414 9.52489 36.5489 9.39376 36.3508 9.43136C36.1505 9.46891 36.0194 9.66137 36.057 9.85948L36.061 9.87711C36.0986 10.0774 36.291 10.2085 36.4891 10.1709L36.4891 10.1731Z" fill="black"/>
<path d="M54.2534 8.13877C54.2534 8.13877 54.7418 8.8066 55.3198 9.48942C55.9299 10.2146 56.6405 10.9549 56.9763 10.9355C57.6262 10.8962 59.7505 10.1658 59.7505 10.1658L60.6922 10.5425C60.6922 10.5425 61.5943 9.86153 61.6037 9.61395C61.6088 9.36848 60.3104 9.06117 60.0496 9.05582C59.7888 9.05047 59.4344 9.4357 59.4344 9.4357C59.4344 9.4357 57.3084 9.82184 57.1077 9.76949C56.0107 9.48166 55.0053 6.43512 54.4004 6.42271L54.3401 7.11875L54.2534 8.13877Z" fill="#E4897B"/>
<path opacity="0.2" d="M54.2533 8.14081C54.2533 8.14081 54.7417 8.80863 55.3198 9.49146C55.4624 8.52521 54.4919 7.3037 54.34 7.12079L54.2533 8.14081Z" fill="black"/>
<path d="M53.1386 3.0558C53.1386 3.0558 53.6003 1.92288 52.1811 1.41575C50.7619 0.908629 50.2769 0.929376 49.8665 1.58754C49.4561 2.24789 49.6627 2.75864 48.8176 2.69306C47.9726 2.62748 47.2555 2.20274 46.6774 2.69959C46.0971 3.19639 46.212 3.9004 45.555 3.22254C44.8958 2.54243 44.8307 2.61346 44.3908 2.89387C44.3908 2.89387 44.7985 3.11492 44.7716 3.35995C44.7446 3.60498 44.1607 3.52942 44.3699 3.91304C44.5792 4.29448 45.1755 5.04565 46.0585 4.65154C46.9415 4.25743 47.239 4.60998 47.239 4.60998C47.239 4.60998 46.59 4.50238 46.1796 4.94565C45.8141 5.3438 45.5771 5.24246 44.9948 5.09237C44.9948 5.09237 45.4025 6.06114 46.4445 5.71634C47.4865 5.37373 47.6184 5.46195 48.7155 5.74539C49.8126 6.02883 51.5666 5.93325 52.4711 5.12955C53.3735 4.32361 53.1407 3.05804 53.1407 3.05804L53.1386 3.0558Z" fill="#263238"/>
<path d="M47.2299 33.6999L46.7414 33.032L47.6087 32.2276L48.3977 31.4983L49.1114 32.1926L48.1171 32.9901L47.2299 33.6999Z" fill="#E4897B"/>
<path d="M46.7149 32.8305C46.7905 32.7794 47.3938 33.7259 47.3938 33.7259C47.3938 33.7259 47.2357 34.6962 47.5034 35.331C47.7711 35.9636 47.2264 35.8998 46.7849 35.2965C46.3434 34.6933 46.0064 34.2325 45.6907 33.8028C45.3772 33.3732 45.9385 33.3737 46.7148 32.8327L46.7149 32.8305Z" fill="#263238"/>
<path d="M47.6116 34.4359C47.6379 34.4364 47.671 34.4262 47.7047 34.3852C47.725 34.3593 47.7344 34.3288 47.7308 34.2914C47.7234 34.2233 47.668 34.1432 47.6037 34.0718C47.697 34.1175 47.7908 34.1458 47.8418 34.1139C47.8752 34.0927 47.8847 34.0534 47.8749 33.9984C47.865 33.9456 47.8373 33.9055 47.7919 33.8783C47.6511 33.7921 47.3864 33.87 47.3731 33.8741C47.3688 33.874 47.3665 33.8761 47.362 33.8804C47.362 33.8804 47.3576 33.8847 47.3553 33.8869C47.3553 33.8869 47.353 33.8934 47.3508 33.8955C47.3508 33.8955 47.3506 33.9043 47.3505 33.9065C47.3664 33.9879 47.4502 34.3931 47.5898 34.4289C47.5964 34.429 47.6029 34.4313 47.6095 34.4315L47.6116 34.4359ZM47.4279 33.9826C47.5248 34.0679 47.6623 34.2067 47.6714 34.299C47.6732 34.3188 47.6707 34.3341 47.6595 34.347C47.6302 34.3815 47.6128 34.3767 47.6062 34.3766C47.5408 34.3599 47.4682 34.1567 47.4279 33.9826ZM47.6247 33.9012C47.6752 33.9022 47.7232 33.9098 47.76 33.9324C47.7904 33.9506 47.8074 33.9773 47.8154 34.0125C47.8194 34.0301 47.821 34.0587 47.8099 34.0672C47.7677 34.0949 47.6026 34.0169 47.4533 33.9196C47.4996 33.9096 47.5634 33.8999 47.6269 33.9012L47.6247 33.9012Z" fill="#FF4062"/>
<path opacity="0.2" d="M48.1171 32.9901L47.6087 32.2276L48.3977 31.4983L49.1114 32.1926L48.1171 32.9901Z" fill="black"/>
<path d="M52.2387 34.8432L51.4102 34.8262L51.2979 33.6727L51.1968 32.6138L52.182 32.4739L52.2133 33.7288L52.2387 34.8432Z" fill="#E4897B"/>
<path d="M51.2359 34.7675C51.2378 34.6754 52.3585 34.7708 52.3585 34.7708C52.3585 34.7708 53.0345 35.4863 53.6998 35.6578C54.3672 35.8294 53.9842 36.2228 53.2346 36.2074L51.3826 36.1694C50.85 36.1585 51.1924 35.7116 51.2337 34.7674L51.2359 34.7675Z" fill="#263238"/>
<path d="M52.9421 35.0703C52.9837 35.0712 53.0168 35.0631 53.0413 35.0461C53.0635 35.029 53.0862 34.9943 53.07 34.9282C53.0619 34.8952 53.0427 34.8707 53.0124 34.8503C52.9539 34.814 52.8575 34.8099 52.7609 34.8166C52.854 34.7703 52.9341 34.7128 52.9397 34.6537C52.9404 34.6164 52.9192 34.5831 52.8671 34.5579C52.8193 34.535 52.7711 34.5318 52.7225 34.5505C52.57 34.611 52.4704 34.8677 52.4658 34.8808C52.4657 34.8851 52.4656 34.8895 52.4655 34.8917C52.4655 34.8917 52.4654 34.8983 52.4654 34.9005C52.4654 34.9005 52.4674 34.9071 52.4696 34.9093C52.4696 34.9093 52.4761 34.9139 52.4782 34.9161C52.5368 34.9458 52.7821 35.0649 52.9399 35.0681L52.9421 35.0703ZM52.8496 34.8733C52.9044 34.8744 52.9503 34.8819 52.9807 34.9001C52.998 34.9114 53.0087 34.9226 53.0127 34.9402C53.0228 34.9843 53.0094 34.995 53.0049 34.9993C52.9514 35.042 52.7467 34.9764 52.5837 34.9029C52.6608 34.887 52.7642 34.8715 52.8518 34.8733L52.8496 34.8733ZM52.7895 34.598C52.807 34.5983 52.8245 34.6031 52.8418 34.6122C52.8571 34.6191 52.883 34.635 52.8805 34.6503C52.8773 34.7006 52.7155 34.785 52.5476 34.8452C52.5843 34.7692 52.657 34.6435 52.7455 34.608C52.7609 34.6018 52.7763 34.5999 52.7917 34.6002L52.7895 34.598Z" fill="#FF4062"/>
<path opacity="0.2" d="M52.2127 33.7536L51.2974 33.6932L51.1966 32.6233L52.1819 32.4769L52.2127 33.7536Z" fill="black"/>
<path d="M54.7115 14.9822C54.7115 14.9822 57.0368 20.8099 57.3706 23.3537C57.7021 25.8974 48.8788 32.5181 48.8788 32.5181L48.0105 31.5553C48.0105 31.5553 54.6081 25.0468 54.6315 23.9048C54.655 22.7629 52.2415 17.4926 52.2415 17.4926C52.2415 17.4926 52.0414 15.3835 54.7115 14.9822Z" fill="#263238"/>
<path opacity="0.4" d="M52.6456 29.4333C51.7412 30.2326 50.8691 30.9515 50.1913 31.4967C49.4044 32.1274 48.881 32.5201 48.881 32.5201L48.0127 31.5573C48.0127 31.5573 48.9191 30.6637 50.0595 29.4811C50.9578 28.5501 52.0002 27.4401 52.8648 26.4448C53.8642 25.2922 54.6237 24.2926 54.6316 23.9068C54.6439 23.3041 53.9781 21.556 53.3472 20.0345C52.7809 18.6721 52.2415 17.4946 52.2415 17.4946C52.2415 17.4946 52.2128 17.1848 52.3263 16.7815C52.5107 16.1297 53.0641 15.2332 54.7138 14.9842C54.7138 14.9842 57.039 20.8141 57.3706 23.3556C57.5526 24.7451 54.9994 27.3547 52.6456 29.4333Z" fill="white"/>
<path opacity="0.2" d="M52.8627 26.4428L52.6456 29.4336C51.7412 30.2329 50.8691 30.9518 50.1913 31.497C50.0954 31.0411 49.9879 30.3 50.0595 29.4814C50.9578 28.5504 52.0002 27.4404 52.8648 26.4451L52.8627 26.4428Z" fill="black"/>
<path opacity="0.2" d="M53.345 20.0299C52.7788 18.6676 52.2394 17.49 52.2394 17.49C52.2394 17.49 52.2107 17.1803 52.3242 16.777C52.484 16.6838 52.6049 16.6665 52.6049 16.6665C52.6049 16.6665 53.3049 17.8167 53.345 20.0299Z" fill="black"/>
<path d="M52.64 16.6673L52.6331 24.8065L52.4622 33.133L51.0529 33.1041C48.0671 17.2576 50.4189 13.3502 50.4189 13.3502L50.4276 13.3504C50.4276 13.3504 50.4323 13.3396 50.4345 13.3352C50.9914 12.1648 54.4584 13.1064 54.4584 13.1064C54.6882 14.0913 54.8096 16.0825 54.8096 16.0825L52.6422 16.6674L52.64 16.6673Z" fill="#263238"/>
<path opacity="0.4" d="M52.64 16.6673L52.6331 24.8065L52.4622 33.133L51.0529 33.1041C48.0671 17.2576 50.4189 13.3502 50.4189 13.3502L50.4276 13.3504C50.4276 13.3504 50.4323 13.3396 50.4345 13.3352C50.9914 12.1648 54.4584 13.1064 54.4584 13.1064C54.6882 14.0913 54.8096 16.0825 54.8096 16.0825L52.6422 16.6674L52.64 16.6673Z" fill="white"/>
<path d="M50.4336 12.7433L50.4214 13.3351L54.4628 13.1088L54.4772 12.4097L50.4336 12.7433Z" fill="#263238"/>
<path d="M51.8027 13.5423L51.6033 13.5483L51.5722 12.5272L51.7716 12.5212L51.8027 13.5423Z" fill="#263238"/>
<path d="M53.5611 13.2023L52.6775 13.2632L52.6312 12.5918L53.5148 12.5308L53.5611 13.2023Z" fill="white"/>
<path d="M54.2734 13.3235L54.074 13.3296L54.0429 12.3085L54.2423 12.3024L54.2734 13.3235Z" fill="#263238"/>
<path opacity="0.4" d="M51.8027 13.5423L51.6033 13.5483L51.5722 12.5272L51.7716 12.5212L51.8027 13.5423Z" fill="white"/>
<path opacity="0.4" d="M54.2734 13.3235L54.074 13.3296L54.0429 12.3085L54.2423 12.3024L54.2734 13.3235Z" fill="white"/>
<path d="M54.4713 12.4803L50.4269 12.746C50.3612 11.2426 50.2868 10.2741 49.4519 7.57973C49.38 7.34363 49.3018 7.09425 49.2151 6.82935C49.7666 6.66525 50.3283 6.54302 50.8979 6.46042C51.4984 6.3653 52.1069 6.3142 52.7144 6.30693C53.5014 6.31649 54.4004 6.42484 54.4004 6.42484C54.4004 6.42484 54.529 6.45818 54.5909 7.29267C54.6493 8.07666 54.6896 9.64088 54.4691 12.4803L54.4713 12.4803Z" fill="#FF4062"/>
<path d="M52.363 7.19294C51.3705 7.0454 51.0811 6.61408 51.0811 6.61408C51.7246 6.03087 51.222 4.9878 51.222 4.9878L52.4141 5.23591C52.3793 5.43254 52.3628 5.59884 52.3577 5.73907C52.334 6.46656 52.6626 6.47988 52.6626 6.47988C52.865 6.87872 52.3652 7.19298 52.3652 7.19298L52.363 7.19294Z" fill="#E4897B"/>
<path opacity="0.2" d="M52.4141 5.23479C52.3794 5.43142 52.3628 5.59772 52.3577 5.73795C51.7841 5.59243 51.222 4.98668 51.222 4.98668L52.4141 5.23479Z" fill="black"/>
<path d="M51.4147 1.89952C52.4345 1.67925 52.8808 2.15545 53.1819 3.19C53.5588 4.48265 53.4682 5.47847 52.133 5.47301C50.3198 5.46431 49.7232 2.26609 51.4169 1.90176L51.4147 1.89952Z" fill="#E4897B"/>
<path d="M52.5084 3.27656C52.5084 3.27656 52.7079 3.51351 52.8965 3.636C52.8965 3.636 52.8383 3.79297 52.6513 3.80891L52.5062 3.27651L52.5084 3.27656Z" fill="#DE5753"/>
<path d="M51.8678 3.32624C51.888 3.41014 51.8578 3.4886 51.8027 3.50065C51.7475 3.51489 51.685 3.45649 51.6647 3.3726C51.6445 3.28871 51.6746 3.21025 51.7298 3.1982C51.785 3.18395 51.8475 3.24235 51.8678 3.32624Z" fill="#263238"/>
<path d="M51.7076 3.20828L51.8726 3.09302C51.8726 3.09302 51.8184 3.26767 51.7076 3.20828Z" fill="#263238"/>
<path d="M52.8994 3.06062C52.9196 3.14451 52.8895 3.22298 52.8343 3.23502C52.7791 3.24927 52.7166 3.19087 52.6963 3.10698C52.6761 3.02309 52.7062 2.94462 52.7614 2.93257C52.8166 2.91833 52.8791 2.97673 52.8994 3.06062Z" fill="#263238"/>
<path d="M52.7392 2.94265L52.9042 2.82739C52.9042 2.82739 52.8501 3.00205 52.7392 2.94265Z" fill="#263238"/>
<path d="M51.7068 2.62451C51.7068 2.62451 51.4119 2.64922 51.2974 2.87533" stroke="#263238" stroke-width="0.72" stroke-linecap="round" stroke-linejoin="round"/>
<path d="M52.436 2.42072C52.436 2.42072 52.6029 2.31431 52.86 2.41624" stroke="#263238" stroke-width="0.72" stroke-linecap="round" stroke-linejoin="round"/>
<path d="M52.5928 4.11003C52.5593 4.24529 52.5499 4.49068 52.5499 4.49068C52.5279 4.49461 52.5059 4.49635 52.4839 4.4981C52.1807 4.53134 52.0289 4.4471 51.9521 4.34466C51.9116 4.28682 51.8931 4.22504 51.8832 4.17222C51.8735 4.11062 51.8811 4.06473 51.8811 4.06473C52.0527 4.1428 52.3379 4.13331 52.4895 4.12107C52.5532 4.1158 52.5928 4.11003 52.5928 4.11003Z" fill="#263238"/>
<path d="M52.4895 4.11951L52.4741 4.23102C52.1884 4.26244 51.9826 4.24506 51.8833 4.16847C51.8736 4.10688 51.8812 4.06099 51.8812 4.06099C52.0528 4.13906 52.338 4.12956 52.4896 4.11732L52.4895 4.11951Z" fill="white"/>
<path d="M52.484 4.49745C52.1802 4.53075 52.0281 4.44636 51.9512 4.34373C52.0545 4.33706 52.182 4.33748 52.2955 4.37276C52.3828 4.39871 52.4411 4.44604 52.484 4.49745Z" fill="#DE5753"/>
<path d="M50.6706 3.85871C50.6706 3.85871 50.9662 2.91754 50.7555 2.28829C50.7555 2.28829 52.5969 1.028 53.1385 3.05639C53.1385 3.05639 52.9443 1.193 51.1833 1.52963C49.4244 1.8663 49.9814 4.42783 51.0507 4.99794C51.0507 4.99794 50.4875 4.44698 50.6706 3.85871Z" fill="#263238"/>
<path d="M50.884 4.03889C50.8413 3.87575 50.6117 3.63423 50.3136 3.73337C50.0045 3.83666 49.995 4.5162 50.8131 4.50448C50.9315 4.50252 50.9714 4.37835 50.8819 4.03884L50.884 4.03889Z" fill="#E4897B"/>
<path d="M50.8795 32.9018L52.6162 32.6831L52.4573 33.3727L51.0244 33.5363L50.8795 32.9018Z" fill="#FF4062"/>
<path d="M48.0171 31.2374L49.1528 32.5237L48.5652 32.8449L47.6882 31.8753L48.0171 31.2374Z" fill="#FF4062"/>
<path d="M51.0041 1.82045C51.0327 1.92648 50.9998 2.02685 50.927 2.04513C50.8563 2.06345 50.7765 1.99371 50.7479 1.88768C50.7193 1.78165 50.7521 1.68128 50.825 1.663C50.8957 1.64468 50.9755 1.71442 51.0041 1.82045Z" fill="#263238"/>
<path d="M50.7983 1.67666L51.0035 1.5249C51.0035 1.5249 50.9397 1.74766 50.7983 1.67666Z" fill="#263238"/>
<path d="M52.3076 1.45131C52.3361 1.55734 52.3033 1.65772 52.2304 1.67599C52.1598 1.69431 52.0799 1.62458 52.0513 1.51855C52.0228 1.41252 52.0556 1.31214 52.1285 1.29386C52.1991 1.27554 52.279 1.34528 52.3076 1.45131Z" fill="#263238"/>
<path d="M52.1017 1.30752L52.3069 1.15576C52.3069 1.15576 52.243 1.37852 52.1017 1.30752Z" fill="#263238"/>
<path d="M52.697 0.960364C52.697 0.960364 52.3957 0.89498 51.886 1.15861C51.886 1.15861 51.6306 1.10294 51.4165 1.27615C51.2538 1.29694 50.8774 1.36815 50.4604 1.60079L50.2824 2.90179L50.2977 3.01393L50.5127 1.8299C50.6349 2.07361 50.9214 2.43251 51.2615 2.31231C51.7165 2.15062 51.6211 1.67065 51.5533 1.44999C51.637 1.32234 51.8199 1.28005 51.8708 1.36222C51.937 1.55873 52.1296 2.00122 52.6139 1.9081C53.1048 1.81292 52.6969 0.962555 52.6969 0.962555L52.697 0.960364Z" fill="#FF4062"/>
<path opacity="0.2" d="M52.697 0.960364C52.697 0.960364 52.3957 0.89498 51.886 1.15861C51.886 1.15861 51.6306 1.10294 51.4165 1.27615C51.2538 1.29694 50.8774 1.36815 50.4604 1.60079L50.2824 2.90179L50.2977 3.01393L50.5127 1.8299C50.6349 2.07361 50.9214 2.43251 51.2615 2.31231C51.7165 2.15062 51.6211 1.67065 51.5533 1.44999C51.637 1.32234 51.8199 1.28005 51.8708 1.36222C51.937 1.55873 52.1296 2.00122 52.6139 1.9081C53.1048 1.81292 52.6969 0.962555 52.6969 0.962555L52.697 0.960364Z" fill="black"/>
<g opacity="0.3">
<path d="M52.5307 1.04719L52.429 1.83667C52.429 1.83667 52.7326 1.89333 52.7793 1.65089C52.8259 1.40846 52.6714 1.02815 52.6714 1.02815C52.6714 1.02815 52.5816 1.02631 52.5307 1.04719Z" fill="white"/>
<path d="M52.4626 1.05005L52.3652 1.84619C52.3652 1.84619 52.2297 1.82368 52.2219 1.77528L52.2994 1.09713C52.2994 1.09713 52.4163 1.06445 52.4626 1.05224L52.4626 1.05005Z" fill="white"/>
<path d="M51.2492 1.41609L51.1475 2.20556C51.1475 2.20556 51.4511 2.26222 51.4978 2.01979C51.5444 1.77736 51.3899 1.39704 51.3899 1.39704C51.3899 1.39704 51.3001 1.3952 51.2492 1.41609Z" fill="white"/>
<path d="M51.1812 1.41748L51.0837 2.21362C51.0837 2.21362 50.9482 2.19111 50.9404 2.14271L51.0179 1.46457C51.0179 1.46457 51.1348 1.43188 51.1811 1.41967L51.1812 1.41748Z" fill="white"/>
</g>
<path opacity="0.3" d="M49.2151 6.82908C49.3018 7.09398 49.38 7.34336 49.4519 7.57946C49.6739 8.30102 49.8436 8.89873 49.9734 9.41448C50.3259 10.8294 50.3793 11.6462 50.4269 12.7457L54.4713 12.4779C54.6056 10.7418 54.6424 9.48395 54.6367 8.58702C54.6352 8.01689 54.6154 7.59549 54.5931 7.29025C54.5291 6.45571 54.4004 6.42238 54.4004 6.42238C54.4004 6.42238 54.162 6.39337 53.8249 6.36671C53.7264 6.35812 53.6191 6.34934 53.5074 6.34266C53.2556 6.32434 52.9797 6.30991 52.7144 6.30666C52.1069 6.31393 51.4985 6.36503 50.8979 6.46015C50.6692 6.49273 50.4425 6.53194 50.2179 6.58214C50.066 6.60973 49.9162 6.64393 49.7663 6.68251C49.5812 6.72696 49.3982 6.77583 49.2151 6.82908Z" fill="black"/>
<path d="M50.2178 6.58238C50.7414 7.24874 51.9973 8.66029 53.0299 8.34818C54.0007 8.05455 53.732 6.93953 53.5074 6.3429C53.2556 6.32457 52.9796 6.31014 52.7144 6.30689C52.1069 6.31416 51.4984 6.36527 50.8979 6.46039C50.6692 6.49297 50.4425 6.53217 50.2178 6.58238Z" fill="#E4897B"/>
<path d="M49.2151 6.83163C49.3018 7.09653 49.38 7.34591 49.4519 7.582C49.6739 8.30357 49.8436 8.90127 49.9734 9.41702C50.4891 8.54176 50.02 7.25159 49.7663 6.68506C49.5812 6.7295 49.3982 6.77837 49.2151 6.83163Z" fill="#E4897B"/>
<path d="M53.8249 6.36865C53.9863 6.839 54.3504 7.90335 54.6367 8.58896C54.6352 8.01883 54.6154 7.59743 54.5931 7.29218C54.5291 6.45765 54.4004 6.42431 54.4004 6.42431C54.4004 6.42431 54.162 6.3953 53.8249 6.36865Z" fill="#E4897B"/>
<path d="M49.215 6.83317C48.5336 7.02311 46.5339 7.23424 46.147 7.06843C45.7601 6.90262 42.8415 4.34307 42.8415 4.34307L42.4855 4.81158C42.4855 4.81158 45.2809 8.03079 45.6496 8.11949C46.0162 8.20814 49.7241 8.20308 49.7241 8.20308L49.2172 6.83321L49.215 6.83317Z" fill="#E4897B"/>
<path opacity="0.2" d="M49.6428 8.21407L49.1432 7.87712C49.1432 7.87712 49.8677 7.51264 50.1969 8.24518C50.5261 8.97771 49.9937 9.49523 49.9937 9.49523L49.6428 8.21407Z" fill="black"/>
<path d="M42.8319 4.81572C42.8319 4.81572 43.1038 4.27971 43.0483 4.10096C42.995 3.92226 41.6194 3.31735 41.2709 3.31021C40.9246 3.3031 40.8176 4.13851 41.028 4.46077C41.2407 4.78308 42.583 5.08689 42.8297 4.81787L42.8319 4.81572Z" fill="#E4897B"/>
<path d="M51.1067 16.9118C51.1067 16.9118 53.8934 18.528 54.0878 18.5627C54.2823 18.5974 57.3135 16.6291 57.3135 16.6291L57.9775 17.3948C57.9775 17.3948 55.2141 19.5637 54.5682 19.8355C53.9223 20.1095 50.9481 18.8732 50.9481 18.8732L51.1067 16.9118Z" fill="#EBB376"/>
<path opacity="0.2" d="M51.1067 16.9118C51.1067 16.9118 53.8934 18.528 54.0878 18.5627C54.2823 18.5974 57.3135 16.6291 57.3135 16.6291L57.9775 17.3948C57.9775 17.3948 55.2141 19.5637 54.5682 19.8355C53.9223 20.1095 50.9481 18.8732 50.9481 18.8732L51.1067 16.9118Z" fill="black"/>
<path d="M48.7346 15.9341C48.3841 15.8129 48.2064 15.6032 48.1349 15.3495C48.0858 15.1775 48.0875 14.9846 48.1113 14.7877C48.1222 14.6849 48.1441 14.5801 48.1681 14.4775L46.5787 13.1819C46.7571 13.9969 46.9501 15.4897 46.3927 16.0462C47.6537 16.8943 48.7346 15.9341 48.7346 15.9341Z" fill="#EBB376"/>
<path opacity="0.2" d="M46.9219 13.9753C46.9411 14.9668 47.7394 15.277 48.1348 15.3509C48.0857 15.1788 48.0874 14.9859 48.1112 14.7891L46.9219 13.9753Z" fill="black"/>
<path d="M49.3985 10.6178C49.3985 10.6178 49.8967 12.0928 49.1955 12.8173C48.4943 13.5419 47.9952 10.7206 47.9952 10.7206L49.3985 10.6178Z" fill="#263238"/>
<path d="M47.0748 14.4358C47.5646 14.9282 48.2261 14.9615 48.7492 14.6894C49.0839 14.5143 49.362 14.2108 49.4971 13.8233C49.5157 13.7732 49.53 13.7187 49.5443 13.6642C49.7774 12.6691 49.6159 11.0256 48.5307 10.5911C47.7587 10.2771 46.8741 10.6471 46.56 11.4212C46.4699 11.6408 46.4322 11.8791 46.4514 12.1163C46.5231 13.2207 46.5119 13.8717 47.0748 14.4336L47.0748 14.4358Z" fill="#EBB376"/>
<path d="M48.129 12.4171C48.1227 12.5071 48.1761 12.5807 48.2377 12.5797C48.2992 12.5788 48.3446 12.505 48.3443 12.415C48.3461 12.3249 48.2949 12.2514 48.2356 12.2524C48.1763 12.2512 48.1287 12.3249 48.129 12.4171Z" fill="#263238"/>
<path d="M49.1486 12.4113C49.1424 12.5012 49.198 12.5749 49.2573 12.5739C49.3166 12.5751 49.3643 12.4992 49.3639 12.4091C49.3658 12.3191 49.3146 12.2455 49.2552 12.2465C49.196 12.2453 49.1482 12.3256 49.1486 12.4113Z" fill="#263238"/>
<path d="M48.8257 12.4583C48.9341 12.7324 49.0801 12.992 49.2595 13.2259C49.1348 13.3154 48.9763 13.3472 48.828 13.3091L48.8257 12.4583Z" fill="#D58745"/>
<path d="M47.8107 12.0889C47.8304 12.0915 47.8504 12.0832 47.8617 12.068C47.9408 11.9576 48.0652 11.892 48.1993 11.8882C48.2278 11.8888 48.2524 11.8673 48.2552 11.8388C48.258 11.8103 48.2343 11.7857 48.2058 11.7829C48.0345 11.7816 47.8747 11.864 47.7773 12.0026C47.7593 12.0264 47.763 12.0594 47.7868 12.0775C47.7933 12.082 47.802 12.0844 47.8108 12.0867L47.8107 12.0889Z" fill="#263238"/>
<path d="M49.5838 12.0568C49.5838 12.0568 49.6057 12.0616 49.6145 12.0574C49.6412 12.0448 49.6528 12.0143 49.6401 11.9877C49.5686 11.8324 49.4259 11.7218 49.2574 11.692C49.2289 11.6892 49.2021 11.7085 49.1993 11.7392C49.1987 11.7677 49.2179 11.7945 49.2464 11.7972C49.3777 11.8241 49.4901 11.9143 49.5469 12.0363C49.5554 12.0496 49.5706 12.0565 49.586 12.0568L49.5838 12.0568Z" fill="#263238"/>
<path d="M47.2539 10.7312L47.3404 11.2153C47.185 11.3086 47.0979 11.4932 47.1818 11.6813C47.3599 12.0819 47.1625 12.729 46.8609 12.9991C46.8609 12.9991 46.8427 12.8211 46.6947 12.8729C46.5467 12.9225 46.6375 13.8453 46.9533 14.2706C46.9533 14.2706 46.4895 13.8949 46.189 12.9393C45.9111 12.0543 45.8409 11.3096 46.0083 10.9512L47.2539 10.7312Z" fill="#263238"/>
<path d="M49.3048 11.0145C49.3048 11.0145 49.7695 10.489 49.4108 10.0189C49.052 9.54893 48.1367 9.16836 48.0506 9.41217C47.9645 9.65599 48.2692 9.7631 48.0426 9.80231C47.8159 9.84151 47.3413 9.57084 46.902 9.60568C46.4628 9.64053 46.7867 9.77654 46.5464 9.94484C46.3062 10.1131 45.9599 10.106 45.7111 10.261C45.4624 10.4159 45.8621 10.7026 45.8621 10.7026C45.8621 10.7026 45.2987 10.6998 45.2912 11.0615C45.2838 11.4231 45.9184 11.3769 45.9184 11.3769C45.9184 11.3769 45.5292 11.6452 45.6098 11.8859C45.6882 12.1243 47.0934 11.7124 47.3382 11.2153C47.3382 11.2153 48.9271 11.4694 49.3048 11.0145Z" fill="#263238"/>
<path d="M48.0224 12.4922C48.0289 12.6021 47.9765 12.6933 47.9039 12.6984C47.8313 12.7035 47.7672 12.6187 47.7606 12.5088C47.7541 12.3988 47.8065 12.3076 47.8791 12.3025C47.9517 12.2974 48.0159 12.3822 48.0224 12.4922Z" fill="#263238"/>
<path d="M47.8481 12.3112L48.0787 12.2039C48.0787 12.2039 47.9734 12.4104 47.8481 12.3112Z" fill="#263238"/>
<path d="M49.3732 12.3847C49.3798 12.4947 49.3274 12.5859 49.2548 12.591C49.1822 12.5961 49.118 12.5113 49.1115 12.4013C49.1049 12.2914 49.1573 12.2002 49.2299 12.1951C49.3025 12.19 49.3667 12.2748 49.3732 12.3847Z" fill="#263238"/>
<path d="M49.1989 12.2037L49.4296 12.0964C49.4296 12.0964 49.3243 12.303 49.1989 12.2037Z" fill="#263238"/>
<path d="M49.8508 11.9754C49.8508 11.9754 49.5683 11.8534 49.0168 12.0131C49.0168 12.0131 48.7777 11.9095 48.5339 12.0383C48.3719 12.0262 47.9882 12.0227 47.5335 12.1713L46.483 12.5027L46.4762 12.6166L47.5418 12.406C47.6132 12.6684 47.8263 13.0763 48.1848 13.0244C48.662 12.9553 48.6611 12.4641 48.6373 12.2356C48.7426 12.1259 48.9313 12.121 48.9645 12.2116C48.991 12.416 49.0931 12.8896 49.5887 12.8888C50.0886 12.8903 49.853 11.9755 49.853 11.9755L49.8508 11.9754Z" fill="#CC334E"/>
<path opacity="0.2" d="M49.8508 11.9754C49.8508 11.9754 49.5683 11.8534 49.0168 12.0131C49.0168 12.0131 48.7777 11.9095 48.5339 12.0383C48.3719 12.0262 47.9882 12.0227 47.5335 12.1713L46.483 12.5027L46.4762 12.6166L47.5418 12.406C47.6132 12.6684 47.8263 13.0763 48.1848 13.0244C48.662 12.9553 48.6611 12.4641 48.6373 12.2356C48.7426 12.1259 48.9313 12.121 48.9645 12.2116C48.991 12.416 49.0931 12.8896 49.5887 12.8888C50.0886 12.8903 49.853 11.9755 49.853 11.9755L49.8508 11.9754Z" fill="black"/>
<g opacity="0.3">
<path d="M49.6699 12.0302L49.4176 12.7837C49.4176 12.7837 49.7047 12.8993 49.7971 12.6687C49.8896 12.4382 49.8101 12.0375 49.8101 12.0375C49.8101 12.0375 49.7228 12.016 49.6677 12.0302L49.6699 12.0302Z" fill="white"/>
<path d="M49.6021 12.0183L49.3518 12.7784C49.3518 12.7784 49.2235 12.7298 49.2245 12.6815L49.433 12.0302C49.433 12.0302 49.5538 12.0195 49.6021 12.0183Z" fill="white"/>
<path d="M48.3409 12.1426L48.0887 12.8961C48.0887 12.8961 48.3757 13.0116 48.4682 12.7811C48.5606 12.5505 48.4811 12.1498 48.4811 12.1498C48.4811 12.1498 48.3938 12.1305 48.3387 12.1425L48.3409 12.1426Z" fill="white"/>
<path d="M48.2754 12.1316L48.0252 12.8917C48.0252 12.8917 47.8968 12.843 47.8978 12.7948L48.1063 12.1435C48.1063 12.1435 48.2271 12.1328 48.2754 12.1316Z" fill="white"/>
</g>
<path d="M45.9723 13.0259C46.0965 13.2762 46.3141 13.4649 46.5776 13.5536C46.9283 13.6682 47.121 13.3586 47.0381 13.0193C46.9609 12.7173 46.6892 12.2841 46.331 12.3206C45.9706 12.3571 45.8251 12.7181 45.9723 13.0259Z" fill="#EBB376"/>
<path d="M48.8082 13.6368C48.704 13.7991 48.5769 14.1144 48.5769 14.1144C48.5464 14.1072 48.5158 14.1022 48.4852 14.095C48.0728 13.9988 47.9142 13.818 47.8607 13.648C47.8319 13.5553 47.8382 13.4634 47.8529 13.3891C47.8678 13.3039 47.8974 13.2475 47.8974 13.2475C48.0867 13.429 48.4636 13.5464 48.6664 13.6032C48.7514 13.6268 48.806 13.6389 48.806 13.6389L48.8082 13.6368Z" fill="#263238"/>
<path d="M48.6686 13.6022L48.5977 13.7411C48.2093 13.6498 47.9486 13.5348 47.8551 13.3881C47.87 13.3029 47.8997 13.2465 47.8997 13.2465C48.0889 13.428 48.4658 13.5454 48.6686 13.6022Z" fill="white"/>
<path d="M48.4852 14.0929C48.0728 13.9967 47.9142 13.8159 47.8607 13.6459C48.0003 13.6839 48.1635 13.7442 48.2974 13.8435C48.4011 13.918 48.4541 14.0089 48.4852 14.0929Z" fill="#DE5753"/>
<path d="M50.1348 16.2973C51.0074 16.1968 52.6859 17.5337 52.6859 17.5337L51.9438 19.5029L50.3272 19.3206L50.1349 16.2951L50.1348 16.2973Z" fill="#CC334E"/>
<path opacity="0.6" d="M50.3272 19.3189L50.4694 19.3349L51.9439 19.5011L52.2478 18.6917L52.686 17.5298C52.686 17.5298 51.0075 16.1929 50.135 16.2934L50.2277 17.7578L50.2974 18.849L50.3273 19.3167L50.3272 19.3189Z" fill="white"/>
<path opacity="0.2" d="M50.2974 18.8518C50.3423 19.0171 50.4003 19.1784 50.4717 19.3355L51.9461 19.5017L52.25 18.6923C51.6068 17.8722 50.2871 17.5381 50.2871 17.5381C50.2615 17.61 50.2425 17.6819 50.2299 17.7584C50.1615 18.1013 50.1954 18.4791 50.2996 18.8496L50.2974 18.8518Z" fill="black"/>
<path d="M44.6875 21.996L51.688 22.1396C51.2499 17.6312 50.1899 16.2873 50.1899 16.2873C50.1899 16.2873 49.5041 16.0496 48.6593 15.8656C48.6191 15.902 48.4954 15.9456 48.1729 15.9543C47.7034 15.9644 46.8848 15.7875 46.4898 15.6961C43.37 16.211 44.6897 21.9961 44.6897 21.9961L44.6875 21.996Z" fill="#CC334E"/>
<path opacity="0.6" d="M44.6159 21.6371C44.6574 21.8616 44.6875 21.996 44.6875 21.996L51.688 22.1396C51.2499 17.6312 50.1899 16.2873 50.1899 16.2873C50.1899 16.2873 49.5041 16.0496 48.6593 15.8656C48.6191 15.902 48.4954 15.9456 48.1729 15.9543C47.7034 15.9644 46.8848 15.7875 46.4898 15.6961C45.612 15.8404 45.0873 16.4019 44.7829 17.1346C44.1715 18.6131 44.4667 20.7899 44.6181 21.6372L44.6159 21.6371Z" fill="white"/>
<path opacity="0.2" d="M44.6159 21.6394C46.1278 22.1177 48.4708 21.633 48.8928 20.0848C49.5474 17.6753 46.4047 16.8478 46.4047 16.8478C45.7482 16.7839 45.2113 16.8759 44.7806 17.1368C44.1692 18.6153 44.4644 20.7921 44.6159 21.6394Z" fill="black"/>
<path d="M57.508 17.1972L57.3114 16.6275C57.3114 16.6275 59.0895 15.6751 59.3445 15.961C59.5996 16.2469 59.8095 17.2357 59.3139 17.4558C58.8181 17.678 58.2147 17.8038 57.9691 17.6979C57.7236 17.5898 57.508 17.1972 57.508 17.1972Z" fill="#EBB376"/>
<path opacity="0.2" d="M57.508 17.1972L57.3114 16.6275C57.3114 16.6275 59.0895 15.6751 59.3445 15.961C59.5996 16.2469 59.8095 17.2357 59.3139 17.4558C58.8181 17.678 58.2147 17.8038 57.9691 17.6979C57.7236 17.5898 57.508 17.1972 57.508 17.1972Z" fill="black"/>
<path d="M56.8912 21.5006C57.0151 21.5558 57.161 21.4974 57.214 21.3735L59.1188 17.0206C59.174 16.8968 59.1156 16.7509 58.9917 16.6979C58.8678 16.6427 58.7219 16.7011 58.6689 16.825L56.7641 21.1779C56.7089 21.3018 56.7673 21.4477 56.8912 21.5006Z" fill="black"/>
<path d="M17.3579 26.3401L81.6251 27.6586C81.7719 27.6616 81.8878 27.7824 81.8848 27.9293L81.6945 37.2048C81.6915 37.3517 81.5707 37.4676 81.4239 37.4646L63.3878 37.0946C63.2409 37.0916 63.1201 37.2075 63.1171 37.3543L63.1015 38.1171C63.0985 38.2639 62.9777 38.3798 62.8308 38.3768L54.9711 38.2156C54.8243 38.2126 54.7084 38.0918 54.7114 37.9449L54.727 37.1822C54.73 37.0353 54.6141 36.9146 54.4673 36.9115L46.7018 36.7522C46.555 36.7492 46.4342 36.8651 46.4312 37.012C46.4282 37.1588 46.3074 37.2748 46.1605 37.2718L42.623 37.1992C42.4762 37.1962 42.3602 37.0754 42.3632 36.9285C42.3663 36.7817 42.2503 36.6609 42.1035 36.6579L38.864 36.5914C38.7172 36.5884 38.5964 36.7043 38.5934 36.8512L38.5871 37.1602C38.584 37.3071 38.4633 37.423 38.3164 37.42L31.4715 37.2796C31.3247 37.2765 31.2087 37.1558 31.2117 37.0089L31.2181 36.6999C31.2211 36.553 31.1052 36.4322 30.9583 36.4292L17.1523 36.146C17.0055 36.143 16.8896 36.0222 16.8926 35.8753L17.0829 26.5997C17.0859 26.4529 17.2067 26.337 17.3535 26.34L17.3579 26.3401Z" fill="black"/>
<path d="M71.6658 45.0468C67.8407 44.9683 64.8034 41.8038 64.8819 37.9787C64.9604 34.1536 68.1249 31.1163 71.95 31.1948C75.7751 31.2733 78.8124 34.4378 78.7339 38.2629C78.6554 42.088 75.4909 45.1253 71.6658 45.0468Z" fill="#263238"/>
<path opacity="0.2" d="M71.6993 43.4139C74.6187 43.4738 77.0411 41.1489 77.101 38.2294C77.1609 35.31 74.8359 32.8876 71.9165 32.8277C68.997 32.7678 66.5746 35.0928 66.5147 38.0122C66.4548 40.9317 68.7798 43.354 71.6993 43.4139Z" fill="black"/>
<path opacity="0.6" d="M71.7128 42.7552C69.1526 42.7027 67.1197 40.5847 67.1723 38.0245C67.2248 35.4643 69.3428 33.4315 71.903 33.484C74.4631 33.5365 76.496 35.6545 76.4435 38.2147C76.3909 40.7749 74.2729 42.8077 71.7128 42.7552Z" fill="white"/>
<path opacity="0.6" d="M71.7263 42.0982C73.9202 42.1432 75.7409 40.3957 75.7859 38.2017C75.8309 36.0077 74.0835 34.187 71.8895 34.142C69.6955 34.097 67.8748 35.8445 67.8298 38.0385C67.7848 40.2324 69.5323 42.0531 71.7263 42.0982Z" fill="white"/>
<path opacity="0.2" d="M71.7848 39.249C72.4072 39.2618 72.9239 38.7659 72.9367 38.1434C72.9495 37.521 72.4535 37.0043 71.8311 36.9915C71.2086 36.9787 70.6919 37.4746 70.6792 38.0971C70.6664 38.7196 71.1623 39.2362 71.7848 39.249Z" fill="black"/>
<g opacity="0.2">
<path d="M70.9509 41.5285L71.622 39.6504C71.6723 39.658 71.7227 39.6613 71.7753 39.6624C71.8279 39.6635 71.8783 39.6624 71.9289 39.6569L72.5179 41.5638C72.2647 41.6155 72.0032 41.6407 71.7336 41.635C71.464 41.6293 71.2017 41.593 70.9509 41.5285Z" fill="black"/>
<path d="M71.8381 36.5832C71.7855 36.5821 71.735 36.5832 71.6845 36.5887L71.0954 34.6818C71.3486 34.6301 71.6101 34.6049 71.8797 34.6106C72.1493 34.6163 72.4116 34.6525 72.6624 34.717L71.9913 36.5952C71.941 36.5876 71.8907 36.5843 71.8381 36.5832Z" fill="black"/>
<path d="M75.2125 38.9779L73.3344 38.3068C73.342 38.2565 73.3453 38.2061 73.3464 38.1535C73.3475 38.1009 73.3485 38.0505 73.3408 37.9999L75.2478 37.4109C75.2995 37.6641 75.3246 37.9256 75.3189 38.1952C75.3133 38.4648 75.277 38.7271 75.2125 38.9779Z" fill="black"/>
<path d="M70.2692 38.0907C70.2681 38.1433 70.2693 38.1938 70.2748 38.2443L68.3678 38.8334C68.3162 38.5801 68.291 38.3187 68.2967 38.0491C68.3024 37.7795 68.3386 37.5171 68.4031 37.2663L70.2812 37.9375C70.2736 37.9878 70.2703 38.0381 70.2692 38.0907Z" fill="black"/>
<path d="M72.9774 39.1209L74.7426 40.0528C74.5999 40.2691 74.4333 40.4717 74.2386 40.6584C74.0439 40.845 73.8322 41.005 73.6102 41.1363L72.7558 39.3334C72.7959 39.3035 72.8339 39.2692 72.8719 39.2327C72.91 39.1963 72.9458 39.1598 72.9774 39.1209Z" fill="black"/>
<path d="M70.636 37.1255L68.8708 36.1937C69.0135 35.9774 69.18 35.7748 69.3748 35.5881C69.5695 35.4015 69.7811 35.2415 70.0032 35.1102L70.8576 36.9131C70.8175 36.943 70.7795 36.9773 70.7414 37.0138C70.7034 37.0502 70.6675 37.0867 70.636 37.1255Z" fill="black"/>
<path d="M72.9179 37.0566C72.8814 37.0186 72.8449 36.9827 72.8061 36.9512L73.738 35.186C73.9542 35.3287 74.1568 35.4953 74.3435 35.69C74.5302 35.8847 74.6901 36.0964 74.8214 36.3184L73.0185 37.1728C72.9886 37.1327 72.9544 37.0947 72.9179 37.0566Z" fill="black"/>
<path d="M69.2721 40.5543C69.0854 40.3596 68.9254 40.1479 68.7942 39.9259L70.5971 39.0715C70.6269 39.1116 70.6612 39.1496 70.6977 39.1877C70.7341 39.2257 70.7707 39.2616 70.8095 39.2931L69.8776 41.0583C69.6613 40.9156 69.4587 40.749 69.2721 40.5543Z" fill="black"/>
</g>
<path d="M26.4473 44.1188C22.6221 44.0404 19.5849 40.8759 19.6634 37.0507C19.7418 33.2256 22.9063 30.1884 26.7315 30.2668C30.5566 30.3453 33.5939 33.5098 33.5154 37.3349C33.4369 41.1601 30.2724 44.1973 26.4473 44.1188Z" fill="#263238"/>
<path opacity="0.2" d="M26.4808 42.4862C29.4002 42.5461 31.8226 40.2211 31.8825 37.3017C31.9424 34.3822 29.6174 31.9598 26.698 31.8999C23.7785 31.8401 21.3561 34.165 21.2962 37.0845C21.2363 40.0039 23.5613 42.4263 26.4808 42.4862Z" fill="black"/>
<path opacity="0.6" d="M26.4943 41.8292C23.9341 41.7766 21.9012 39.6586 21.9538 37.0985C22.0063 34.5383 24.1243 32.5054 26.6845 32.558C29.2446 32.6105 31.2775 34.7285 31.225 37.2887C31.1724 39.8488 29.0544 41.8817 26.4943 41.8292Z" fill="white"/>
<path opacity="0.6" d="M26.5078 41.1702C28.7017 41.2152 30.5224 39.4677 30.5674 37.2737C30.6124 35.0798 28.8649 33.2591 26.671 33.214C24.477 33.169 22.6563 34.9165 22.6113 37.1105C22.5663 39.3045 24.3138 41.1252 26.5078 41.1702Z" fill="white"/>
<path opacity="0.2" d="M26.5663 38.321C27.1887 38.3338 27.7054 37.8379 27.7182 37.2154C27.7309 36.593 27.235 36.0763 26.6126 36.0635C25.9901 36.0507 25.4734 36.5467 25.4607 37.1691C25.4479 37.7916 25.9438 38.3083 26.5663 38.321Z" fill="black"/>
<g opacity="0.2">
<path d="M29.9811 38.1008L28.113 37.402C28.1214 37.3519 28.1254 37.3016 28.1273 37.249C28.1292 37.1964 28.1288 37.1459 28.124 37.0953L30.0395 36.5344C30.0874 36.7884 30.1087 37.0502 30.099 37.3197C30.0894 37.5892 30.0493 37.851 29.9811 38.1008Z" fill="black"/>
<path d="M25.0514 37.1409C25.0495 37.1935 25.0499 37.2439 25.0546 37.2946L23.1392 37.8555C23.0913 37.6015 23.07 37.3397 23.0796 37.0702C23.0893 36.8007 23.1294 36.5389 23.1976 36.2891L25.0656 36.9879C25.0573 37.038 25.0533 37.0883 25.0514 37.1409Z" fill="black"/>
<path d="M27.4958 33.8019L26.797 35.67C26.7469 35.6616 26.6966 35.6576 26.644 35.6557C26.5914 35.6539 26.5409 35.6542 26.4903 35.659L25.9294 33.7436C26.1834 33.6957 26.4452 33.6743 26.7147 33.684C26.9841 33.6937 27.2459 33.7338 27.4958 33.8019Z" fill="black"/>
<path d="M26.5338 38.7317C26.5864 38.7335 26.6368 38.7354 26.6875 38.7284L27.2484 40.6438C26.9944 40.6917 26.7326 40.7131 26.4631 40.7034C26.1936 40.6937 25.9318 40.6536 25.682 40.5855L26.3808 38.7174C26.4309 38.7258 26.4812 38.7298 26.5338 38.7317Z" fill="black"/>
<path d="M27.6057 36.039L28.5635 34.2877C28.7776 34.4336 28.9778 34.6031 29.1615 34.8006C29.3453 34.998 29.5021 35.212 29.6301 35.436L27.8148 36.2637C27.7856 36.2232 27.7518 36.1847 27.7159 36.1461C27.68 36.1075 27.644 36.0711 27.6057 36.039Z" fill="black"/>
<path d="M25.5739 38.3507L24.6162 40.102C24.402 39.9561 24.2019 39.7866 24.0181 39.5892C23.8344 39.3917 23.6775 39.1777 23.5495 38.9538L25.3648 38.126C25.3941 38.1666 25.4278 38.2051 25.4637 38.2437C25.4996 38.2822 25.5356 38.3186 25.5739 38.3507Z" fill="black"/>
<path d="M25.5388 36.0683C25.5003 36.1042 25.4639 36.1402 25.4318 36.1785L23.6805 35.2207C23.8264 35.0066 23.9959 34.8064 24.1933 34.6227C24.3908 34.4389 24.6048 34.2821 24.8287 34.1541L25.6565 35.9694C25.6159 35.9986 25.5774 36.0324 25.5388 36.0683Z" fill="black"/>
<path d="M28.9825 39.7651C28.7851 39.9489 28.5711 40.1057 28.3471 40.2337L27.5194 38.4184C27.5599 38.3891 27.5984 38.3554 27.637 38.3195C27.6756 38.2836 27.712 38.2476 27.7441 38.2093L29.4954 39.1671C29.3495 39.3812 29.18 39.5813 28.9825 39.7651Z" fill="black"/>
</g>
<path d="M46.1467 20.2996C46.1467 20.2996 45.3273 16.6363 44.1534 15.9259C44.1534 15.9259 44.5516 15.6491 44.0687 14.3893C43.5859 13.1296 43.129 12.1006 42.2843 12.3376C41.4375 12.5746 39.0766 14.0369 42.2115 15.8861C42.2115 15.8861 41.5144 17.5887 41.4337 21.4133C41.3531 25.2379 45.2853 29.4781 46.1512 28.8468C47.0171 28.2155 46.1467 20.2996 46.1467 20.2996Z" fill="#263238"/>
<path d="M25.8294 15.8098C26.2053 16.2977 26.196 16.9641 26.095 17.508C25.9962 18.0476 25.8034 18.4668 25.8034 18.4668L38.7031 20.3847L38.749 18.1469C38.749 18.1469 38.8753 16.8032 32.2673 16.5514C32.2673 16.5514 28.6581 12.9186 27.83 12.9894C26.5714 13.0951 27.0221 14.1086 27.0221 14.1086C27.0221 14.1086 26.4947 13.9465 26.0511 14.0887C25.5037 14.266 25.0819 14.8384 25.8294 15.8098Z" fill="#263238"/>
<path opacity="0.2" d="M25.8295 15.8099C26.2054 16.2978 26.1961 16.9642 26.095 17.5081C28.6063 18.0092 37.8776 18.8375 37.4189 18.2185C36.911 17.5349 31.5986 17.5136 31.3001 17.3123C30.9994 17.111 27.0221 14.1087 27.0221 14.1087C27.0221 14.1087 26.4948 13.9466 26.0511 14.0888C25.5037 14.2662 25.0819 14.8386 25.8295 15.8099Z" fill="black"/>
<path d="M14.0712 34.5581L18.9383 34.6974C19.1972 30.6309 22.635 27.4409 26.7468 27.5253C30.8585 27.6096 34.2336 31.0052 34.2606 35.139L64.1426 35.9976L64.1433 35.9604C64.23 31.7346 67.7373 28.3662 71.9652 28.453C74.6677 28.5084 77.0169 29.9621 78.3389 32.1074C79.0881 33.3178 79.5061 34.7494 79.4748 36.2749C79.4736 36.3297 79.4725 36.3845 79.4714 36.4393L80.9784 35.7664L84.7759 34.0704C84.7759 34.0704 86.0513 26.9462 82.8897 23.0857C79.728 19.2275 67.5821 16.1585 67.5821 16.1585C67.5821 16.1585 64.1237 11.268 61.8575 8.86657C61.7888 8.795 61.7223 8.72346 61.6557 8.65632C61.5418 8.54215 61.3875 8.4754 61.2253 8.47207L59.7875 8.44258C59.6165 8.43907 59.4989 8.61645 59.5724 8.77145C60.2316 10.1993 62.739 15.8114 62.681 18.6366L31.582 17.9985L25.8316 15.8084C25.8316 15.8084 16.4158 17.5361 15.3119 18.7611C15.1862 18.901 15.0723 19.2144 14.9733 19.6597C14.1809 23.1211 14.0734 34.5581 14.0734 34.5581L14.0712 34.5581Z" fill="url(#paint0_linear_110_7502)"/>
<path d="M80.3421 21.0402C78.6916 20.5831 78.9933 24.045 81.2107 25.9411C83.4281 27.8373 84.3175 27.7722 84.589 26.7209C84.8605 25.6696 83.6344 21.9497 80.3421 21.0402Z" fill="#407BFF"/>
<path opacity="0.6" d="M80.3421 21.0402C78.6916 20.5831 78.9933 24.045 81.2107 25.9411C83.4281 27.8373 84.3175 27.7722 84.589 26.7209C84.8605 25.6696 83.6344 21.9497 80.3421 21.0402Z" fill="white"/>
<path opacity="0.6" d="M80.4171 23.9091C80.6917 24.9497 81.3323 25.6842 81.8482 25.5479C82.364 25.4116 82.559 24.4574 82.2844 23.4168C82.0097 22.3762 81.3692 21.6417 80.8533 21.778C80.3374 21.9143 80.1424 22.8685 80.4171 23.9091Z" fill="white"/>
<path opacity="0.6" d="M82.9267 25.4476C83.0528 25.926 83.3485 26.2654 83.5866 26.2023C83.8247 26.1392 83.9126 25.7003 83.7865 25.2219C83.6604 24.7435 83.3647 24.4041 83.1266 24.4672C82.8885 24.5303 82.8006 24.9692 82.9267 25.4476Z" fill="white"/>
<path opacity="0.2" d="M79.8802 23.1378C79.8802 23.1378 81.6177 25.342 84.1676 25.3505C84.1676 25.3505 83.1074 22.3072 80.3231 21.3247C80.3231 21.3247 79.4728 21.9432 79.8802 23.1378Z" fill="white"/>
<path d="M60.7189 8.99677C60.9436 9.37633 61.1762 9.79553 61.4127 10.2345C62.5873 12.4053 63.8137 15.0441 64.1831 15.8498C64.2524 15.9982 64.3995 16.0955 64.5661 16.0989L67.5798 16.1607C67.5798 16.1607 64.1214 11.2702 61.8552 8.86879L60.8075 8.84729C60.7286 8.84568 60.6787 8.92797 60.7189 8.99677Z" fill="#263238"/>
<path opacity="0.2" d="M60.7189 8.99677C60.9436 9.37633 61.1762 9.79553 61.4127 10.2345C62.9322 11.6296 65.0079 13.6982 66.9113 16.147L67.5798 16.1607C67.5798 16.1607 64.1214 11.2702 61.8552 8.86879L60.8075 8.84729C60.7286 8.84568 60.6787 8.92797 60.7189 8.99677Z" fill="white"/>
<path opacity="0.2" d="M14.0712 34.5588L18.9383 34.6982C19.1972 30.6316 22.635 27.4416 26.7467 27.526C30.8585 27.6104 34.2335 31.0059 34.2606 35.1397L64.1425 35.9984L64.1433 35.9611C64.23 31.7354 67.7372 28.367 71.9652 28.4537C74.6676 28.5092 77.0169 29.9629 78.3389 32.1082C79.0881 33.3185 79.506 34.7502 79.4747 36.2756C79.4736 36.3304 79.4725 36.3852 79.4714 36.44L80.9784 35.7671L81.4695 29.5718C81.4695 29.5718 79.8758 25.4936 73.6722 23.1627C67.4665 20.8295 19.2263 21.4076 19.2263 21.4076C19.2263 21.4076 16.554 19.8858 14.9733 19.6604C14.8963 19.9943 14.8265 20.4008 14.7622 20.8665C14.5482 22.4255 14.3978 24.6239 14.2939 26.8035C14.1085 30.7114 14.0734 34.5589 14.0734 34.5589L14.0712 34.5588Z" fill="black"/>
<path d="M17.2844 31.3071L18.9383 34.6981C19.1972 30.6315 22.635 27.4415 26.7467 27.5259C30.8585 27.6103 34.2336 31.0058 34.2606 35.1396L64.1425 35.9983L64.1433 35.961C64.23 31.7353 67.7373 28.3669 71.9652 28.4536C74.6676 28.5091 77.0169 29.9628 78.3389 32.1081L79.8284 30.8997C79.8284 30.8997 78.0583 26.1228 72.0156 25.9988C65.9728 25.8749 63.1919 30.3918 62.4298 33.6608L36.0715 33.12C36.0715 33.12 33.9248 25.2173 26.7971 25.0711C19.6695 24.9249 17.2844 31.3071 17.2844 31.3071Z" fill="#834A22"/>
<path d="M79.2279 38.686C79.2201 39.0651 79.5163 39.3782 79.8933 39.3859L81.7716 39.4245C82.0522 39.4302 82.328 39.3438 82.5551 39.1774L85.9544 36.6883C86.1815 36.5197 86.3722 36.3109 86.513 36.0748C86.6947 35.7672 86.7984 35.4163 86.8059 35.0503L86.8684 32.0037C86.8725 31.8043 86.8305 31.6082 86.7464 31.4311C86.6792 31.285 86.5855 31.1515 86.4672 31.0395L85.0004 29.6433L81.4673 29.5708L78.3389 32.1072C79.2688 33.591 79.272 37.1783 79.2279 38.686Z" fill="#834A22"/>
<path opacity="0.2" d="M82.8964 33.9759C82.8832 34.6181 83.0405 35.1827 83.2905 35.4992C83.4208 35.6663 83.5767 35.766 83.7476 35.7695C84.2386 35.7795 84.6538 34.9943 84.6739 34.0124C84.694 33.0305 84.3114 32.2289 83.8205 32.2188C83.667 32.2157 83.5208 32.2916 83.393 32.4249C83.1107 32.7195 82.9102 33.3031 82.8964 33.9759Z" fill="black"/>
<path opacity="0.2" d="M82.8964 33.9769C82.8832 34.6191 83.0404 35.1836 83.2905 35.5001C83.5728 35.2055 83.7712 34.622 83.785 33.9491C83.7988 33.2762 83.6408 32.7445 83.393 32.4259C83.1107 32.7205 82.9102 33.304 82.8964 33.9769Z" fill="white"/>
<path opacity="0.1" d="M81.4673 29.5716L83.3952 31.3631L86.7464 31.4319C86.6793 31.2858 86.5855 31.1523 86.4672 31.0402L85.0004 29.6441L81.4673 29.5716Z" fill="white"/>
<path opacity="0.2" d="M79.2278 38.6876C79.22 39.0668 79.5162 39.3799 79.8932 39.3876L81.7715 39.4261C82.0521 39.4319 82.328 39.3455 82.555 39.1791L85.9543 36.69C86.1814 36.5214 86.3721 36.3126 86.5129 36.0765L82.5217 35.9946L80.436 37.6205C80.436 37.6205 80.8387 34.127 79.092 31.9467L81.4672 29.5725L78.3388 32.1089C79.2688 33.5927 79.2719 37.18 79.2278 38.6876Z" fill="black"/>
<path d="M18.9383 34.6999L15.3123 27.3962L14.2099 27.3735L12.8913 28.1578C12.5117 28.3824 12.2776 28.7876 12.2686 29.2282L12.1555 34.7405C12.1468 35.1635 12.3469 35.5623 12.6927 35.8062L14.1234 36.8223C14.2445 36.9081 14.386 36.9548 14.5351 36.9579L18.1559 37.0322C18.5614 37.0405 18.8991 36.7185 18.9074 36.3109L18.9405 34.6977L18.9383 34.6999Z" fill="#834A22"/>
<g opacity="0.2">
<path d="M62.4275 33.77C62.4889 33.7713 62.5381 33.724 62.5393 33.6627C62.5689 32.2227 64.0537 30.1745 64.0695 30.1529C64.083 30.1356 64.09 30.1138 64.0905 30.0897C64.2693 21.3752 63.5018 19.1339 63.4708 19.0412L63.1104 17.159C63.0984 17.0996 63.0422 17.0611 62.9828 17.0731C62.9233 17.085 62.8849 17.1412 62.8968 17.2007L63.2635 19.0983C63.2759 19.1358 64.0512 21.4278 63.8764 30.0502C63.6868 30.316 62.354 32.2227 62.3246 33.6561C62.3233 33.7174 62.3706 33.7667 62.4319 33.7679L62.4275 33.77Z" fill="black"/>
</g>
<path d="M62.4483 16.3163C62.8581 16.3247 63.2052 16.6168 63.2868 17.0176C63.4463 17.7971 63.637 18.9741 63.367 19.0935C63.1015 19.2109 61.7113 19.2109 60.7732 19.196C60.2888 19.1882 59.9045 18.7879 59.9144 18.3035L59.9172 18.1698C59.9388 17.1155 60.8111 16.2805 61.8631 16.3021L62.4483 16.3141L62.4483 16.3163Z" fill="#263238"/>
<path opacity="0.2" d="M62.4483 16.3163C62.8581 16.3247 63.2052 16.6168 63.2868 17.0176C63.4463 17.7971 63.637 18.9741 63.367 19.0935C63.1015 19.2109 61.7113 19.2109 60.7732 19.196C60.2888 19.1882 59.9045 18.7879 59.9144 18.3035L59.9172 18.1698C59.9388 17.1155 60.8111 16.2805 61.8631 16.3021L62.4483 16.3141L62.4483 16.3163Z" fill="black"/>
<path d="M58.0457 17.6838C58.4172 17.8537 60.7008 17.9137 60.7008 17.9137L60.75 18.0813C60.8174 18.3195 61.0311 18.484 61.2788 18.4891L61.5572 18.4948C61.8421 18.5006 62.06 18.2442 62.0066 17.9646C61.9709 17.7797 61.9293 17.5617 61.8793 17.3283C61.6821 16.3595 61.3874 15.1211 61.167 14.9609C60.8429 14.7262 58.8296 14.7463 58.1174 15.0452C58.0112 15.0913 57.9334 15.1423 57.895 15.1986C57.5965 15.6397 57.6743 17.5139 58.0457 17.6838Z" fill="#263238"/>
<path opacity="0.1" d="M58.1175 15.0444C58.1061 15.6011 58.239 16.391 58.3341 16.882C58.3856 17.1505 58.6118 17.3481 58.8834 17.3647L61.3447 17.5248C61.5527 17.5378 61.7429 17.4606 61.8794 17.3275C61.6822 16.3586 61.3874 15.1203 61.1671 14.9601C60.843 14.7254 58.8297 14.7455 58.1175 15.0444Z" fill="white"/>
<g opacity="0.2">
<path d="M41.7399 33.4327C41.7497 33.4856 41.7951 33.5216 41.8455 33.5226C41.8542 33.5228 41.8608 33.5229 41.8674 33.5209C41.9268 33.5111 41.9675 33.4528 41.9556 33.3933C40.198 23.7247 41.1038 18.266 41.1115 18.2113C41.1138 18.207 41.1139 18.2004 41.114 18.196L40.8948 18.1915C40.8372 18.5412 40.0237 23.9953 41.7399 33.4327Z" fill="black"/>
</g>
<path opacity="0.2" d="M43.0622 22.5214L45.46 22.5706C46.0057 22.5818 46.4372 23.0336 46.4261 23.5771C46.4149 24.1207 45.9631 24.5543 45.4195 24.5432L43.0217 24.494C42.476 24.4828 42.0445 24.031 42.0557 23.4875C42.0668 22.9439 42.5186 22.5102 43.0622 22.5214ZM42.6602 23.9472L45.801 24.0116C46.0487 24.0167 46.2522 23.8191 46.2573 23.5737C46.2623 23.3282 46.067 23.1224 45.8193 23.1174L42.6785 23.0529C42.4309 23.0478 42.2273 23.2454 42.2222 23.4909C42.2172 23.7363 42.4125 23.9421 42.6602 23.9472Z" fill="black"/>
<path opacity="0.4" d="M12.7395 30.3233L12.2463 30.3132L12.1722 33.9253L12.6653 33.9354C13.0314 33.9429 13.3334 33.6509 13.3408 33.287L13.3877 31.001C13.3953 30.635 13.1032 30.333 12.7394 30.3255L12.7395 30.3233Z" fill="black"/>
<path opacity="0.4" d="M14.2917 26.8052C15.1731 26.4878 15.8522 25.3418 15.927 23.94C15.9325 23.8853 15.9336 23.8305 15.9348 23.7757C15.9611 22.4935 15.4774 21.3807 14.7599 20.8682C14.6415 21.7253 14.5432 22.7758 14.4629 23.91C14.3934 24.8383 14.3403 25.8239 14.2917 26.8052Z" fill="black"/>
<path opacity="0.6" d="M14.2917 26.8037C15.1731 26.4863 15.8522 25.3403 15.927 23.9385L14.4629 23.9084C14.3934 24.8367 14.3403 25.8223 14.2917 26.8037Z" fill="white"/>
<path opacity="0.2" d="M66.3278 23.5376L67.7941 23.5677C68.0352 23.5726 68.2364 23.3816 68.2414 23.1383C68.2464 22.8972 68.0553 22.6981 67.812 22.6932L66.3457 22.6631C66.1046 22.6581 65.9056 22.8492 65.9006 23.0903C65.8957 23.3314 66.0867 23.5326 66.3278 23.5376Z" fill="white"/>
<path d="M45.4681 18.7778C45.4681 18.7778 48.0099 21.641 48.5895 22.0344C49.1713 22.4256 52.6434 19.4863 52.6434 19.4863C52.6434 19.4863 54.4866 19.0988 54.5067 19.0838C54.5267 19.0689 53.6415 18.1846 53.1898 18.1841C52.7381 18.1836 52.0215 18.9122 51.9995 18.914C51.9776 18.9157 49.4531 20.8746 49.0505 20.6164C48.6479 20.3604 47.4065 18.2409 47.4065 18.2409L45.4681 18.7778Z" fill="#EBB376"/>
<path d="M45.2792 16.1259C44.0205 16.986 44.864 18.8342 46.31 20.3899L48.3975 19.1062C48.3975 19.1062 46.8136 15.0786 45.2792 16.1259Z" fill="#B22D45"/>
<path opacity="0.6" d="M45.2792 16.1259C44.0205 16.986 44.864 18.8342 46.31 20.3899L48.3975 19.1062C48.3975 19.1062 46.8136 15.0786 45.2792 16.1259Z" fill="white"/>
<path d="M6.13994 31.6765C6.05832 33.0548 3.68267 33.5345 2.02871 33.4365C0.374753 33.3386 0.0688165 32.7001 0.150435 31.3218C0.232053 29.9435 1.13989 28.876 2.79384 28.974C4.4478 29.0719 6.22156 30.2982 6.13994 31.6765Z" fill="#2D2D2D" fill-opacity="0.2"/>
<path d="M11.1232 31.5787C11.2187 32.451 9.78121 33.0042 8.73451 33.1187C7.68781 33.2332 7.42823 32.8657 7.33281 31.9934C7.23739 31.1212 7.69268 30.3558 8.73938 30.2413C9.78608 30.1268 11.0278 30.7065 11.1232 31.5787Z" fill="#2D2D2D" fill-opacity="0.2"/>
<path d="M8.03761 29.749C8.08282 30.1623 7.40182 30.4243 6.90594 30.4786C6.41007 30.5328 6.28709 30.3587 6.24189 29.9455C6.19668 29.5323 6.41238 29.1697 6.90825 29.1154C7.40413 29.0612 7.9924 29.3358 8.03761 29.749Z" fill="#2D2D2D" fill-opacity="0.2"/>
<defs>
<linearGradient id="paint0_linear_110_7502" x1="27.9806" y1="9.79085" x2="77.9577" y2="33.6043" gradientUnits="userSpaceOnUse">
<stop stop-color="#995726"/>
<stop offset="1" stop-color="#FF9040"/>
</linearGradient>
</defs>
</svg>
