<svg width="96" height="8" viewBox="0 0 96 8" fill="none" xmlns="http://www.w3.org/2000/svg">
<g clip-path="url(#clip0_15_1680)">
<rect width="96" height="8" fill="#FFB9B9"/>
<path d="M-16.0049 12L-0.00366211 -4" stroke="#E85D5D" stroke-width="2" stroke-linecap="round"/>
<path d="M-8.00427 12L7.99695 -4" stroke="#E85D5D" stroke-width="2" stroke-linecap="round"/>
<path d="M-0.00366211 12L15.9976 -4" stroke="#E85D5D" stroke-width="2" stroke-linecap="round"/>
<path d="M7.99695 12L23.9982 -4" stroke="#E85D5D" stroke-width="2" stroke-linecap="round"/>
<path d="M15.9976 12L31.9988 -4" stroke="#E85D5D" stroke-width="2" stroke-linecap="round"/>
<path d="M23.9982 12L39.9994 -4" stroke="#E85D5D" stroke-width="2" stroke-linecap="round"/>
<path d="M31.9988 12L48 -4" stroke="#E85D5D" stroke-width="2" stroke-linecap="round"/>
<path d="M39.9994 12L56.0006 -4" stroke="#E85D5D" stroke-width="2" stroke-linecap="round"/>
<path d="M48 12L64.0012 -4" stroke="#E85D5D" stroke-width="2" stroke-linecap="round"/>
<path d="M56.0006 12L72.0018 -4" stroke="#E85D5D" stroke-width="2" stroke-linecap="round"/>
<path d="M64.0012 12L80.0024 -4" stroke="#E85D5D" stroke-width="2" stroke-linecap="round"/>
<path d="M72.0018 12L88.0031 -4" stroke="#E85D5D" stroke-width="2" stroke-linecap="round"/>
<path d="M80.0024 12L96.0037 -4" stroke="#E85D5D" stroke-width="2" stroke-linecap="round"/>
<path d="M88.0031 12L104.004 -4" stroke="#E85D5D" stroke-width="2" stroke-linecap="round"/>
<path d="M96.0037 12L112.005 -4" stroke="#E85D5D" stroke-width="2" stroke-linecap="round"/>
</g>
<defs>
<clipPath id="clip0_15_1680">
<rect width="96" height="8" fill="white"/>
</clipPath>
</defs>
</svg>
