<svg width="157" height="113" viewBox="0 0 157 113" fill="none" xmlns="http://www.w3.org/2000/svg">
<mask id="mask0_15_334" style="mask-type:alpha" maskUnits="userSpaceOnUse" x="0" y="0" width="157" height="157">
<rect y="33.1288" width="128" height="128" transform="rotate(-15 0 33.1288)" fill="#D9D9D9"/>
</mask>
<g mask="url(#mask0_15_334)">
<path d="M64.3583 129.075L47.7939 67.2562C47.2173 65.1043 47.4793 63.0771 48.58 61.1746C49.6807 59.2722 51.3043 58.0334 53.4508 57.4582L115.27 40.8938C117.395 40.3244 119.417 40.5936 121.336 41.7014C123.255 42.8092 124.499 44.4256 125.068 46.5507L135.938 87.1195C136.225 88.188 136.283 89.2639 136.113 90.3472C135.943 91.4306 135.607 92.4078 135.104 93.2787L119.642 120.06C119.139 120.931 118.461 121.711 117.608 122.399C116.754 123.088 115.794 123.576 114.725 123.862L74.1563 134.732C72.0313 135.302 70.0094 135.032 68.0906 133.925C66.1718 132.817 64.9277 131.2 64.3583 129.075ZM18.5412 60.6006C17.5368 58.5691 17.4327 56.5494 18.2291 54.5416C19.0254 52.5337 20.4393 51.0275 22.4708 50.0231L80.4897 22.8819C82.5212 21.8774 84.5351 21.7519 86.5315 22.5053C88.5278 23.2587 90.0282 24.6512 91.0327 26.6826L96.1992 37.7216L51.509 49.6963C47.1301 50.8696 43.8436 53.3722 41.6495 57.204C39.4554 61.0357 38.9277 65.0767 40.0665 69.3267L54.4568 123.032C52.6936 123.321 51.0185 123.079 49.4316 122.308C47.8446 121.537 46.6378 120.296 45.8112 118.585L18.5412 60.6006ZM91.8847 92.712L94.9906 104.303C95.2839 105.398 95.9022 106.216 96.8454 106.757C97.7888 107.298 98.811 107.421 99.9121 107.126C101.013 106.83 101.829 106.215 102.361 105.279C102.892 104.343 103.011 103.327 102.718 102.233L99.6121 90.6415L111.203 87.5356C112.298 87.2423 113.116 86.624 113.657 85.6808C114.198 84.7374 114.321 83.7152 114.026 82.6141C113.731 81.513 113.115 80.6967 112.179 80.1653C111.243 79.6339 110.227 79.5149 109.133 79.8082L97.5416 82.9141L94.4358 71.323C94.1424 70.2282 93.5241 69.4104 92.5809 68.8694C91.6375 68.3285 90.6153 68.2055 89.5142 68.5006C88.4131 68.7956 87.5968 69.4112 87.0654 70.3473C86.534 71.2834 86.415 72.2988 86.7083 73.3935L89.8142 84.9846L78.2231 88.0904C77.1283 88.3838 76.3105 89.0021 75.7695 89.9453C75.2286 90.8887 75.1056 91.9109 75.4007 93.012C75.6957 94.1131 76.3113 94.9294 77.2474 95.4608C78.1835 95.9922 79.1989 96.1112 80.2936 95.8179L91.8847 92.712Z" fill="#ECEEF4"/>
</g>
</svg>
